<?xml version="1.0" standalone="no"?>
<!DOCTYPE svg PUBLIC "-//W3C//DTD SVG 20010904//EN"
 "http://www.w3.org/TR/2001/REC-SVG-20010904/DTD/svg10.dtd">
<svg version="1.0" xmlns="http://www.w3.org/2000/svg"
 width="101.000000pt" height="107.000000pt" viewBox="0 0 101.000000 107.000000"
 preserveAspectRatio="xMidYMid meet">

<g transform="translate(0.000000,107.000000) scale(0.100000,-0.100000)"
fill="#000000" stroke="none">
<path d="M657 882 c-48 -48 -87 -92 -87 -98 0 -6 11 -21 25 -34 l25 -24 45 44
45 44 0 -229 c0 -204 -3 -235 -19 -272 -21 -45 -90 -103 -125 -103 -35 0 -48
-15 -44 -51 3 -33 5 -34 41 -32 54 3 132 49 168 97 52 71 59 116 59 365 l0
225 45 -44 45 -44 25 24 c14 13 25 28 25 34 0 11 -170 186 -180 186 -3 0 -45
-39 -93 -88z"/>
<path d="M384 936 c-27 -13 -66 -42 -87 -66 -61 -72 -67 -103 -67 -369 l0
-235 -43 42 c-23 23 -48 42 -55 42 -6 0 -19 -11 -28 -25 -16 -24 -15 -26 24
-72 22 -27 63 -70 91 -97 l51 -50 31 30 c17 16 58 59 91 96 l60 68 -24 29 -23
29 -47 -46 -48 -46 0 229 c0 201 3 235 19 270 23 52 81 102 126 111 33 6 35 9
35 45 0 36 -2 39 -27 39 -16 0 -51 -11 -79 -24z"/>
</g>
</svg>
